<svg width="18" height="17" viewBox="0 0 18 17" fill="none" xmlns="http://www.w3.org/2000/svg">
<g clip-path="url(#clip0)">
<path d="M4.54498 11.0045C4.54498 10.6865 4.40784 10.4151 4.13358 10.1901C3.85931 9.96516 3.52836 9.85268 3.14073 9.85268C2.7531 9.85268 2.42216 9.96516 2.14789 10.1901C1.87362 10.4151 1.73649 10.6865 1.73649 11.0045C1.73649 11.3224 1.87362 11.5939 2.14789 11.8188C2.42216 12.0438 2.7531 12.1563 3.14073 12.1563C3.52836 12.1563 3.85931 12.0438 4.13358 11.8188C4.40784 11.5939 4.54498 11.3224 4.54498 11.0045ZM15.7789 11.0045C15.7789 10.6865 15.6418 10.4151 15.3675 10.1901C15.0933 9.96516 14.7623 9.85268 14.3747 9.85268C13.9871 9.85268 13.6561 9.96516 13.3818 10.1901C13.1076 10.4151 12.9704 10.6865 12.9704 11.0045C12.9704 11.3224 13.1076 11.5939 13.3818 11.8188C13.6561 12.0438 13.9871 12.1563 14.3747 12.1563C14.7623 12.1563 15.0933 12.0438 15.3675 11.8188C15.6418 11.5939 15.7789 11.3224 15.7789 11.0045ZM15.2743 7.44113L14.4844 3.98577C14.4478 3.8478 14.3655 3.73532 14.2376 3.64833C14.1096 3.56135 13.9615 3.51786 13.7932 3.51786H3.72218C3.55396 3.51786 3.40586 3.56135 3.27787 3.64833C3.14988 3.73532 3.0676 3.8478 3.03103 3.98577L2.24114 7.44113C2.20457 7.62109 2.25577 7.78006 2.39473 7.91804C2.53369 8.05601 2.71288 8.125 2.93229 8.125H14.5831C14.8025 8.125 14.9817 8.05601 15.1207 7.91804C15.2597 7.78006 15.3109 7.62109 15.2743 7.44113ZM12.7949 1.93415C12.7949 1.81417 12.7437 1.71219 12.6413 1.62821C12.5389 1.54422 12.4146 1.50223 12.2683 1.50223H5.2471C5.10082 1.50223 4.97649 1.54422 4.8741 1.62821C4.77171 1.71219 4.72051 1.81417 4.72051 1.93415C4.72051 2.05413 4.77171 2.15611 4.8741 2.24009C4.97649 2.32408 5.10082 2.36607 5.2471 2.36607H12.2683C12.4146 2.36607 12.5389 2.32408 12.6413 2.24009C12.7437 2.15611 12.7949 2.05413 12.7949 1.93415ZM17.1832 8.45794V13.8839H15.7789V15.0357C15.7789 15.3537 15.6418 15.6251 15.3675 15.8501C15.0933 16.075 14.7623 16.1875 14.3747 16.1875C13.9871 16.1875 13.6561 16.075 13.3818 15.8501C13.1076 15.6251 12.9704 15.3537 12.9704 15.0357V13.8839H4.54498V15.0357C4.54498 15.3537 4.40784 15.6251 4.13358 15.8501C3.85931 16.075 3.52836 16.1875 3.14073 16.1875C2.7531 16.1875 2.42216 16.075 2.14789 15.8501C1.87362 15.6251 1.73649 15.3537 1.73649 15.0357V13.8839H0.332245V8.45794C0.332245 7.78606 0.423667 7.11719 0.606511 6.45131L1.73649 2.36607C1.80231 1.89816 2.15886 1.48723 2.80613 1.1333C3.4534 0.779367 4.29448 0.512416 5.32938 0.33245C6.36428 0.152483 7.50706 0.0625 8.75771 0.0625C10.0084 0.0625 11.1511 0.152483 12.186 0.33245C13.2209 0.512416 14.062 0.779367 14.7093 1.1333C15.3566 1.48723 15.7131 1.89816 15.7789 2.36607L16.9309 6.45131C17.0991 7.0632 17.1832 7.73207 17.1832 8.45794Z" fill="#1D2E5B"/>
</g>
<defs>
<clipPath id="clip0">
<rect width="16.858" height="16.125" fill="white" transform="translate(0.329559 0.0625)"/>
</clipPath>
</defs>
</svg>
