<svg width="13" height="11" viewBox="0 0 13 11" fill="none" xmlns="http://www.w3.org/2000/svg">
<path d="M3.25536 0.47406C4.94813 0.47406 6.31919 1.82156 6.31919 3.48385C6.31919 1.82156 7.69025 0.47406 9.38302 0.47406C11.0758 0.47406 12.4469 1.82156 12.4469 3.48385C12.4469 5.98919 9.96974 6.87293 6.61945 10.8609C6.58256 10.9047 6.53658 10.9399 6.48472 10.9641C6.43286 10.9882 6.37637 11.0007 6.31919 11.0007C6.26201 11.0007 6.20552 10.9882 6.15366 10.9641C6.1018 10.9399 6.05582 10.9047 6.01893 10.8609C2.66864 6.87293 0.191528 5.98919 0.191528 3.48385C0.191528 1.82156 1.56259 0.47406 3.25536 0.47406Z" fill="#F02323"/>
</svg>
